<svg id="Northgate_Logo_-_SVG" data-name="Northgate Logo - SVG" xmlns="http://www.w3.org/2000/svg" width="732" height="151" viewBox="0 0 732 151">
  <defs>
    <style>
      .cls-1, .cls-2 {
        fill: #1A3564;
      }

      .cls-2 {
        fill-rule: evenodd;
      }
    </style>
  </defs>
  <rect id="line" class="cls-1" x="204" y="32" width="8" height="105"/>
  <path id="estates" class="cls-2" d="M261.3,138.24h20.1v-5.4H268.684v-4.7h11.464v-4.867H268.684v-3.792h12.358V114.38H261.3v23.86Zm46.582-1.937q2.341,2.345,8.423,2.344a14.312,14.312,0,0,0,5.739-1,7.933,7.933,0,0,0,3.545-2.938,7.563,7.563,0,0,0,1.268-4.231,6.709,6.709,0,0,0-.951-3.532,7.274,7.274,0,0,0-3.041-2.645,30.911,30.911,0,0,0-6.918-2.108,6.025,6.025,0,0,1-2.472-.879,1.328,1.328,0,0,1-.536-1.025,1.671,1.671,0,0,1,.65-1.327,2.955,2.955,0,0,1,1.935-.545,3.245,3.245,0,0,1,3.61,3.076l6.943-.407a7.343,7.343,0,0,0-2.854-5.411q-2.4-1.7-6.967-1.7a14.938,14.938,0,0,0-5.862.936,7.065,7.065,0,0,0-3.2,2.571,6.262,6.262,0,0,0-1.065,3.475,5.827,5.827,0,0,0,2.081,4.606q2.065,1.808,6.911,2.9a9.415,9.415,0,0,1,3.772,1.384,2.19,2.19,0,0,1,.813,1.66,2.221,2.221,0,0,1-.854,1.717,3.6,3.6,0,0,1-2.431.741,3.893,3.893,0,0,1-3.252-1.449,5.35,5.35,0,0,1-.926-2.6l-7.009.439A9.247,9.247,0,0,0,307.884,136.3Zm42.159-16.032h7.512V138.24h7.366V120.271h7.512V114.38h-22.39v5.891ZM410.5,138.24h7.714l-8.958-23.86h-8.034l-8.959,23.86h7.52l1.162-3.939h8.363Zm-7.955-9.1,2.6-8.578,2.631,8.578h-5.235Zm35.194-8.871h7.512V138.24h7.366V120.271h7.512V114.38h-22.39v5.891ZM484.6,138.24h20.1v-5.4H491.983v-4.7h11.463v-4.867H491.983v-3.792H504.34V114.38H484.6v23.86Zm46.581-1.937q2.341,2.345,8.423,2.344a14.317,14.317,0,0,0,5.74-1,7.93,7.93,0,0,0,3.544-2.938,7.564,7.564,0,0,0,1.269-4.231,6.709,6.709,0,0,0-.951-3.532,7.28,7.28,0,0,0-3.041-2.645,30.906,30.906,0,0,0-6.919-2.108,6.025,6.025,0,0,1-2.471-.879,1.327,1.327,0,0,1-.537-1.025,1.672,1.672,0,0,1,.651-1.327,2.952,2.952,0,0,1,1.935-.545,3.243,3.243,0,0,1,3.609,3.076l6.943-.407a7.342,7.342,0,0,0-2.853-5.411q-2.4-1.7-6.968-1.7a14.936,14.936,0,0,0-5.861.936,7.068,7.068,0,0,0-3.2,2.571,6.262,6.262,0,0,0-1.065,3.475,5.828,5.828,0,0,0,2.082,4.606q2.064,1.808,6.91,2.9a9.408,9.408,0,0,1,3.772,1.384A2.19,2.19,0,0,1,543,131.5a2.219,2.219,0,0,1-.853,1.717,3.6,3.6,0,0,1-2.431.741,3.892,3.892,0,0,1-3.252-1.449,5.36,5.36,0,0,1-.927-2.6l-7.008.439A9.246,9.246,0,0,0,531.182,136.3Z"/>
  <path id="Northgate" class="cls-2" d="M262.44,82.107h13.854V55.9l17.853,26.2h13.886V34.385H294.147v26.4L276.2,34.385H262.44V82.107Zm58.488-9.9a20.107,20.107,0,0,0,8.569,8.138q5.284,2.572,13.35,2.572,7.934,0,13.252-2.978a20.072,20.072,0,0,0,8.13-8.333q2.813-5.354,2.813-13.721,0-11.523-6.439-17.92t-18.342-6.4q-11.609,0-18.113,6.51t-6.5,18.2Q317.644,66.645,320.928,72.211Zm14.146-24.316a8.947,8.947,0,0,1,7.155-3.158,9.282,9.282,0,0,1,7.366,3.109q2.715,3.109,2.715,9.847,0,8.008-2.6,11.1a10.147,10.147,0,0,1-14.65-.065q-2.682-3.157-2.683-10.384Q332.375,51.052,335.074,47.894Zm56.57,34.212V62.738h1.3a6.18,6.18,0,0,1,3.61,1.107,11.12,11.12,0,0,1,2.667,3.678L407.1,82.107h16.646l-7.134-13.828a18.8,18.8,0,0,0-2.064-2.965,14.849,14.849,0,0,0-2.356-2.509,14.69,14.69,0,0,0-3.835-1.759,17.8,17.8,0,0,0,5.174-1.888,12.764,12.764,0,0,0,6.345-11.523A13.189,13.189,0,0,0,417.66,39.9a11.12,11.12,0,0,0-5.821-4.346A35.644,35.644,0,0,0,401.4,34.385H376.847V82.107h14.8Zm0-38.086h6.471q4.032,0,5.5,1.237a4.839,4.839,0,0,1,.537,6.315,3.9,3.9,0,0,1-2.391,1.5,22.154,22.154,0,0,1-3.9.651h-6.211v-9.7ZM426.2,46.169h15.024V82.107h14.732V46.169h15.024V34.385H426.2V46.169Zm53.187,35.938h14.731V62.8h16.1v19.3h14.8V34.385h-14.8v16.7h-16.1v-16.7H479.384V82.107Zm90.91-17.285v4.492a25.432,25.432,0,0,1-5.138,2.441,15.411,15.411,0,0,1-4.715.716,10.221,10.221,0,0,1-8.114-3.32q-2.912-3.32-2.911-11.068,0-7.292,2.878-10.661a9.641,9.641,0,0,1,7.724-3.369,9.288,9.288,0,0,1,5.349,1.432,7.7,7.7,0,0,1,2.976,4.134l14.211-2.539a19.74,19.74,0,0,0-3.886-7.633,15.356,15.356,0,0,0-6.5-4.443q-3.919-1.432-11.821-1.432-8.194,0-13.041,2.311a20.858,20.858,0,0,0-9.43,8.773,27.472,27.472,0,0,0-3.22,13.591A28.379,28.379,0,0,0,537.6,71.4a19.814,19.814,0,0,0,8.293,8.626q5.349,2.9,13.837,2.9a39.209,39.209,0,0,0,11.919-1.611,46.626,46.626,0,0,0,11.561-6.071V54.893H560.441v9.928h9.853Zm55.029,17.285h15.426L622.835,34.385H606.766L588.847,82.107h15.042l2.324-7.878h16.725Zm-15.911-18.2,5.208-17.155,5.262,17.155h-10.47Zm29.761-17.741H654.2V82.107h14.732V46.169h15.024V34.385h-44.78V46.169Zm53.089,35.938h40.2V71.3H707.026V61.892h22.927V52.159H707.026V44.574h24.716V34.385h-39.48V82.107Z"/>
  <g id="window">
    <path id="_4" data-name="4" class="cls-2" d="M77.714,99.667H91V113H77.714V99.667Z"/>
    <path id="_3" data-name="3" class="cls-2" d="M60,99.667H73.286V113H60V99.667Z"/>
    <path id="_2" data-name="2" class="cls-2" d="M77.714,81H91V94.333H77.714V81Z"/>
    <path id="_1" data-name="1" class="cls-2" d="M60,81H73.286V94.333H60V81Z"/>
  </g>
  <path id="house" class="cls-2" d="M0.066,113.992L0.134,76.986,39.067,38.494,78,0l38.933,38.491,38.932,38.491,0.068,37.006L156,151l-3.9-3.578c-2.145-1.969-8-7.571-13-12.451L130,126.1V88.454L104,62.369,78,36.285,52,62.369,26,88.454V126.1l-9.1,8.871c-5,4.88-10.855,10.482-13,12.451L0,151l0.068-37.006h0Z"/>
</svg>
